<svg xmlns="http://www.w3.org/2000/svg" xmlns:xlink="http://www.w3.org/1999/xlink" viewBox="0 0 131.12 131.11"><defs><style>.cls-1{fill:url(#linear-gradient);}.cls-2{fill:url(#linear-gradient-2);}</style><linearGradient id="linear-gradient" x1="65.56" y1="131.11" x2="65.56" gradientUnits="userSpaceOnUse"><stop offset="0" stop-color="#f9acd7"/><stop offset="1" stop-color="#fff"/></linearGradient><linearGradient id="linear-gradient-2" x1="65.52" y1="100.55" x2="65.52" y2="35.55" gradientUnits="userSpaceOnUse"><stop offset="0" stop-color="#f39"/><stop offset="0.38" stop-color="#fc66b3"/><stop offset="0.79" stop-color="#fa98cd"/><stop offset="1" stop-color="#f9acd7"/></linearGradient></defs><g id="Layer_2" data-name="Layer 2"><g id="Layer_1-2" data-name="Layer 1"><path class="cls-1" d="M115.33,23C105.06,10.89,91.89,3.6,76.23.86,74.05.48,71.84.28,69.65,0H61.46c-2.4.33-4.81.59-7.19,1a64.19,64.19,0,0,0-35.38,18.6,64.51,64.51,0,0,0-18,35.28C.5,57.06.29,59.27,0,61.46v8.19c.34,2.44.59,4.9,1,7.33a64.51,64.51,0,0,0,21.22,37.7,63.3,63.3,0,0,0,34.58,15.83c17.73,2.27,33.92-1.9,48.18-12.7,13.9-10.53,22.49-24.51,25.2-41.75C133.35,56.21,128.33,38.39,115.33,23ZM97.25,74.69C91.92,82.07,85.11,87.94,77.76,93.2c-3.25,2.33-6.69,4.41-10,6.63a3.65,3.65,0,0,1-4.29,0c-10-6.06-19.3-12.87-26.93-21.79-4.05-4.75-7.38-9.93-8.7-16.15-.34-1.62-.45-3.28-.59-4.39.35-8.75,3.45-15.4,10.87-19.44,6.45-3.5,13.14-3.24,19.7-.29A48.25,48.25,0,0,1,64.65,42a1.24,1.24,0,0,0,1.83,0,26.38,26.38,0,0,1,16.25-6.33,20.53,20.53,0,0,1,21,19.48C104.26,62.57,101.46,68.86,97.25,74.69Z"/><path class="cls-2" d="M97.25,74.69C91.92,82.07,85.11,87.94,77.76,93.2c-3.25,2.33-6.69,4.41-10,6.63a3.65,3.65,0,0,1-4.29,0c-10-6.06-19.3-12.87-26.93-21.79-4.05-4.75-7.38-9.93-8.7-16.15-.34-1.62-.45-3.28-.59-4.39.35-8.75,3.45-15.4,10.87-19.44,6.45-3.5,13.14-3.24,19.7-.29A48.25,48.25,0,0,1,64.65,42a1.24,1.24,0,0,0,1.83,0,26.38,26.38,0,0,1,16.25-6.33,20.53,20.53,0,0,1,21,19.48C104.26,62.57,101.46,68.86,97.25,74.69Z"/></g></g></svg>